<svg width="512" height="512" viewBox="0 0 88 88" xmlns="http://www.w3.org/2000/svg">
  <rect width="88" height="88" rx="44" fill="#F7FAFF"/>
  <rect width="88" height="88" rx="44" fill="none" stroke="#378ADD" stroke-width="3"/>
  <circle cx="30" cy="22" r="7" fill="#378ADD"/>
  <path d="M19 41 Q19 31 30 31 Q41 31 41 41 L41 45 L19 45Z" fill="#378ADD"/>
  <circle cx="58" cy="22" r="7" fill="#378ADD" opacity="0.7"/>
  <path d="M47 41 Q47 31 58 31 Q69 31 69 41 L69 45 L47 45Z" fill="#378ADD" opacity="0.7"/>
  <ellipse cx="29" cy="61" rx="10" ry="7" fill="#FAC775"/>
  <ellipse cx="20" cy="56" rx="5" ry="6" fill="#FAC775"/>
  <circle cx="20" cy="54" r="4" fill="#FAC775"/>
  <ellipse cx="17.5" cy="51.5" rx="2.2" ry="3.8" fill="#e6a830"/>
  <ellipse cx="22.5" cy="51.5" rx="2.2" ry="3.8" fill="#e6a830"/>
  <ellipse cx="61" cy="62" rx="8" ry="6" fill="#2d2d2d"/>
  <ellipse cx="53" cy="57" rx="4" ry="5" fill="#2d2d2d"/>
  <circle cx="53" cy="55" r="3.2" fill="#2d2d2d"/>
  <path d="M49.5 50.5 L52 55" stroke="#2d2d2d" stroke-width="2.5" stroke-linecap="round"/>
  <path d="M56.5 50.5 L54 55" stroke="#2d2d2d" stroke-width="2.5" stroke-linecap="round"/>
  <circle cx="51.5" cy="54" r="1" fill="white" opacity="0.8"/>
  <circle cx="54.5" cy="54" r="1" fill="white" opacity="0.8"/>
</svg>
